<svg xmlns="http://www.w3.org/2000/svg" xmlns:xlink="http://www.w3.org/1999/xlink" width="500" zoomAndPan="magnify" viewBox="0 0 375 374.999991" height="500" preserveAspectRatio="xMidYMid meet" version="1.0"><defs><clipPath id="dfa9f5f153"><path d="M 73.792969 77.398438 L 300.292969 77.398438 L 300.292969 303.898438 L 73.792969 303.898438 Z M 73.792969 77.398438 " clip-rule="nonzero"/></clipPath></defs><rect x="-37.5" width="450" fill="#ffffff" y="-37.499999" height="449.999989" fill-opacity="1"/><rect x="-37.5" width="450" fill="#ffffff" y="-37.499999" height="449.999989" fill-opacity="1"/><rect x="-37.5" width="450" fill="#7ed957" y="-37.499999" height="449.999989" fill-opacity="1"/><g clip-path="url(#dfa9f5f153)"><path fill="#000000" d="M 0.191406 187.34375 C 0.191406 83.984375 84.28125 -0.105469 187.648438 -0.105469 C 291.007812 -0.105469 375.097656 83.984375 375.097656 187.34375 C 375.097656 290.707031 291.007812 374.800781 187.648438 374.800781 C 84.285156 374.800781 0.191406 290.707031 0.191406 187.34375 Z M 356.609375 187.34375 C 356.609375 94.179688 280.8125 18.382812 187.648438 18.382812 C 94.480469 18.382812 18.679688 94.179688 18.679688 187.34375 C 18.679688 280.511719 94.480469 356.3125 187.648438 356.3125 C 280.8125 356.3125 356.609375 280.511719 356.609375 187.34375 Z M 356.609375 187.34375 " fill-opacity="1" fill-rule="nonzero"/></g><path fill="#000000" d="M 246.554688 257.824219 L 255.148438 257.808594 C 264.050781 257.808594 271.273438 250.582031 271.273438 241.675781 L 247.671875 125.859375 C 247.671875 123.8125 247.253906 121.875 246.554688 120.070312 Z M 246.554688 257.824219 " fill-opacity="1" fill-rule="nonzero"/><path fill="#000000" d="M 147.441406 232.121094 C 147.441406 223.625 154.351562 216.714844 162.847656 216.714844 L 192.941406 216.714844 C 201.4375 216.714844 208.347656 223.625 208.347656 232.121094 L 208.347656 274.207031 L 218.097656 274.207031 C 226.992188 274.207031 234.230469 266.972656 234.230469 258.078125 L 234.230469 116.617188 C 234.230469 107.722656 226.992188 100.488281 218.097656 100.488281 L 135.148438 100.488281 C 126.25 100.488281 119.011719 107.722656 119.011719 116.617188 L 119.011719 258.078125 C 119.011719 266.972656 126.25 274.207031 135.148438 274.207031 L 147.441406 274.207031 Z M 147.441406 232.121094 " fill-opacity="1" fill-rule="nonzero"/><path fill="#000000" d="M 159.765625 232.121094 C 159.765625 230.421875 161.148438 229.039062 162.847656 229.039062 L 192.941406 229.039062 C 194.636719 229.039062 196.023438 230.421875 196.023438 232.121094 L 196.023438 278.894531 C 196.023438 280.597656 194.636719 281.976562 192.941406 281.976562 L 162.847656 281.976562 C 161.148438 281.976562 159.765625 280.597656 159.765625 278.894531 Z M 159.765625 232.121094 " fill-opacity="1" fill-rule="nonzero"/></svg>