<?xml version="1.0" standalone="no"?>
<!DOCTYPE svg PUBLIC "-//W3C//DTD SVG 20010904//EN"
 "http://www.w3.org/TR/2001/REC-SVG-20010904/DTD/svg10.dtd">
<svg version="1.0" xmlns="http://www.w3.org/2000/svg"
 width="500.000000pt" height="500.000000pt" viewBox="0 0 500.000000 500.000000"
 preserveAspectRatio="xMidYMid meet">

<g transform="translate(0.000000,500.000000) scale(0.100000,-0.100000)"
fill="#000000" stroke="none">
<path d="M1715 3641 c-43 -19 -100 -78 -116 -118 -5 -14 -9 -431 -9 -1027 l0
-1002 29 -46 c18 -28 48 -57 78 -75 45 -26 55 -28 158 -28 l110 0 5 315 c5
308 5 316 28 353 13 20 45 50 70 65 l47 27 262 0 261 0 44 -30 c23 -17 54 -51
68 -75 25 -45 25 -46 28 -354 l3 -308 93 4 c78 3 99 8 139 31 26 16 60 47 75
69 l27 42 3 1008 c2 978 2 1009 -17 1046 -25 48 -66 87 -113 106 -32 14 -117
16 -635 16 -557 0 -601 -2 -638 -19z"/>
<path d="M3291 2473 l-1 -913 68 0 c109 0 175 29 221 96 52 75 56 42 -117 894
-88 432 -162 796 -165 810 -2 14 -5 -386 -6 -887z"/>
<path d="M2146 1934 c-14 -13 -16 -59 -16 -343 0 -241 3 -330 12 -339 9 -9 74
-12 229 -12 214 0 218 0 233 22 14 19 16 68 16 335 0 300 -1 314 -20 333 -19
19 -33 20 -229 20 -177 0 -212 -2 -225 -16z"/>
</g>
</svg>
